<?xml version="1.0" encoding="utf-8"?>
<!-- Generator: Adobe Illustrator 16.0.0, SVG Export Plug-In . SVG Version: 6.00 Build 0)  -->
<!DOCTYPE svg PUBLIC "-//W3C//DTD SVG 1.1//EN" "http://www.w3.org/Graphics/SVG/1.1/DTD/svg11.dtd">
<svg version="1.1" id="Layer_1" xmlns="http://www.w3.org/2000/svg" xmlns:xlink="http://www.w3.org/1999/xlink" x="0px" y="0px"
	 width="116px" height="50px" viewBox="0 0 116 50" enable-background="new 0 0 116 50" xml:space="preserve">
<title>TPTF_rev</title>
<desc>Created with Sketch.</desc>
<g id="Symbols">
	<g id="dsktp_head" transform="translate(-20.000000, -11.000000)">
		<g id="TPTF_rev" transform="translate(20.000000, 11.000000)">
			<g id="Layer_1_1_">
				<polygon id="Shape" fill="#F9F9F9" points="57.107,39 62.908,37.304 61.213,43.196 62.908,49 57.107,47.304 51.308,49 
					53.003,43.196 51.308,37.304 				"/>
				<polygon id="Shape_1_" fill="#F9F9F9" points="47.114,45.875 5.711,45.875 0.268,45.875 0.268,40.429 0.268,5.339 0.268,2.661 
					0.268,-0.107 115.732,-0.107 115.732,2.661 115.732,5.339 115.732,40.429 115.732,45.875 110.289,45.875 67.102,45.875 
					66.299,43.196 67.102,40.429 110.289,40.429 110.289,5.339 5.711,5.339 5.711,40.429 47.114,40.429 47.917,43.196 				"/>
				<g id="Group" transform="translate(13.384615, 13.392857)">
					<polygon id="Shape_2_" fill="#F9F9F9" points="6.514,4.446 0.803,4.446 0.803,-0.197 17.578,-0.197 17.578,4.446 11.868,4.446 
						11.868,19 6.514,19 					"/>
					<path id="Shape_3_" fill="#F9F9F9" d="M25.431-0.197h8.209c4.819,0,7.942,2.5,7.942,6.696v0.089c0,4.555-3.48,6.875-8.21,6.875
						h-2.587v5.447h-5.354V-0.197L25.431-0.197z M33.283,9.357c1.874,0,3.034-0.982,3.034-2.5V6.768c0-1.607-1.16-2.5-3.034-2.5
						h-2.498v5.089H33.283z"/>
					<polygon id="Shape_4_" fill="#F9F9F9" points="54.074,4.446 48.363,4.446 48.363,-0.197 65.139,-0.197 65.139,4.446 
						59.428,4.446 59.428,19 54.074,19 					"/>
					<polygon id="Shape_5_" fill="#F9F9F9" points="72.902,-0.197 88.249,-0.197 88.249,4.446 78.256,4.446 78.256,7.75 
						87.358,7.75 87.358,12.125 78.256,12.125 78.256,19 72.902,19 					"/>
				</g>
			</g>
		</g>
	</g>
</g>
</svg>
