<?xml version="1.0" encoding="utf-8"?>
<!-- Generator: Adobe Illustrator 16.0.0, SVG Export Plug-In . SVG Version: 6.00 Build 0)  -->
<!DOCTYPE svg PUBLIC "-//W3C//DTD SVG 1.1//EN" "http://www.w3.org/Graphics/SVG/1.1/DTD/svg11.dtd">
<svg version="1.1" id="Layer_1" xmlns="http://www.w3.org/2000/svg" xmlns:xlink="http://www.w3.org/1999/xlink" x="0px" y="0px"
	 width="200px" height="70px" viewBox="0 0 200 70" enable-background="new 0 0 200 70" xml:space="preserve">
<g>
	<path fill-rule="evenodd" clip-rule="evenodd" fill="#009FDF" d="M6.66,28.745c0.581-0.943,1.411-1.704,2.265-2.462
		c3.278-2.908,6.586-5.793,9.767-8.781c1.527-1.434,2.99-2.905,4.828-4.045c0.616-0.381,1.231-0.775,1.969-0.971
		c1.621,1.116,3.243,2.233,4.236,3.877c-0.563,1.135-1.611,1.934-2.624,2.719c-1.788,1.391-2.604,3.134-2.869,5.158
		c-0.081,0.616,0.38,1.257-0.129,1.844c-2.206,2.287-4.708,4.328-7.072,6.484c-1.014,0.926-2.043,1.863-2.73,3.025
		c-0.92-0.047-1.333-0.729-1.829-1.223c-1.677-1.668-3.501-3.209-5.279-4.791C6.93,29.348,6.619,29.129,6.66,28.745z"/>
	<path fill-rule="evenodd" clip-rule="evenodd" fill="#D71A63" d="M25.503,49.695c0.979,0.829,1.965,1.65,2.934,2.489
		c2.479,2.144,5.191,2.181,7.703,0.098c0.109-0.091,0.232-0.168,0.35-0.252c1.299,0.495,2.098,1.503,3.003,2.364
		c1.078,1.023,2.182,2.023,3.276,3.031c0.466,0.43,0.947,0.876,0.853,1.552c-0.981,0.864-1.827,1.859-3.096,2.445
		c-0.608,0.127-0.883-0.277-1.214-0.586c-3.225-3.012-8.236-3.486-12.132-1.153c-0.542,0.324-0.97,0.735-1.376,1.179
		c-0.324,0.354-0.62,0.779-1.26,0.733c-0.972-0.276-1.59-0.951-2.274-1.549c-1.467-1.282-2.927-2.569-4.39-3.854
		c-0.038-0.729,0.625-1.129,1.089-1.551c1.711-1.56,3.365-3.178,5.33-4.509C24.652,49.893,24.975,49.573,25.503,49.695z"/>
	<path fill-rule="evenodd" clip-rule="evenodd" fill="#008F9A" d="M36.021,11.276c2.629,0.717,5.029,1.813,7.007,3.497
		c1.794,1.527,3.467,3.164,5.22,4.729c0.372,0.332,0.291,0.5-0.038,0.795c-2.152,1.922-4.294,3.854-6.41,5.807
		c-0.465,0.43-0.767,0.512-1.261,0.026c-1.387-1.362-3.047-2.495-4.305-3.97c-0.63-0.739-1.559-1.154-2.515-1.507
		c-1.054-1.296-2.404-2.369-3.55-3.595c-0.213-0.229-0.453-0.457-0.451-0.785c0.002-0.1-0.004-0.219,0.067-0.288
		c1.789-1.723,3.514-3.507,5.906-4.641C35.784,11.301,35.915,11.316,36.021,11.276z"/>
	<path fill-rule="evenodd" clip-rule="evenodd" fill="#F6911E" d="M53.464,42.194c-1.383,0.01-2.479-0.335-3.344-1.112
		c-1.429-1.284-2.871-2.563-4.216-3.913c-1.584-1.59-1.441-4.014,0.213-5.562c1.426-1.335,2.931-2.601,4.366-3.93
		c1.533-1.419,4.75-1.172,5.985,0.36c0.992,1.231,1.046,1.199-0.181,2.301c-1.846,1.655-1.84,3.764,0.035,5.412
		c0.886,0.781,1.79,1.544,2.717,2.286c0.244,0.196,0.357,0.327,0.115,0.557c-1.547,1.475-2.791,3.299-5.378,3.578
		C53.625,42.188,53.473,42.193,53.464,42.194z"/>
	<path fill-rule="evenodd" clip-rule="evenodd" fill="#F16222" d="M25.503,49.695c-2.576,1.464-4.504,3.534-6.625,5.422
		c-0.368,0.328-0.667,0.715-0.998,1.075c-0.446-0.358-1.054-0.599-1.159-1.207c0.883-1.35,1.398-2.76,1.382-4.355
		c-0.02-1.921-0.859-3.483-2.289-4.859c-1.869-1.8-3.776-3.565-5.771-5.259c-0.191-0.161-0.376-0.33-0.511-0.536
		c-0.055-0.091-0.093-0.188-0.119-0.288c0.112-2.194-0.478-4.209-1.934-6.027c-0.486-0.607-1.086-1.107-1.659-1.637
		c-0.31-0.287-0.695-0.531-0.77-0.962c0.32-0.888,0.904-1.634,1.609-2.316c2.547,2.282,5.094,4.565,7.641,6.849
		c-0.69,2.211,0.069,3.964,1.944,5.554c3.02,2.562,5.894,5.254,8.827,7.892C25.276,49.225,25.562,49.375,25.503,49.695z"/>
	<path fill-rule="evenodd" clip-rule="evenodd" fill="#ED2A24" d="M9.678,39.938c2.903,2.507,6.202,4.747,8.068,8.005
		c1.199,2.094,0.864,4.319-0.312,6.42c-0.154,0.275-0.396,0.484-0.713,0.623c-3.452-2.768-6.554-5.834-9.782-8.791
		c-0.205-0.188-0.333-0.438-0.497-0.66c0.376-0.764,1.044-1.365,1.504-2.088c0.537-0.845,1.004-1.7,1.235-2.649
		C9.259,40.477,9.323,40.141,9.678,39.938z"/>
	<path fill-rule="evenodd" clip-rule="evenodd" fill="#44B649" d="M43.622,58.978c-0.41-0.764-0.986-1.416-1.673-2.006
		c-1.87-1.604-3.477-3.433-5.459-4.941c2.264-2.049,4.393-4.21,6.753-6.181c0.762-0.637,1.504-1.289,2.146-2.038
		c0.862-1.008,1.187-1.007,2.05,0.041c0.542,0.655,1.223,1.154,1.872,1.698c0.045,0.678-0.606,0.964-1.041,1.346
		c-1.267,1.111-2.569,2.174-3.092,3.766c-0.601,1.826-0.573,3.607,0.266,5.368c0.173,0.365,0.456,0.707,0.261,1.136
		C45.073,57.825,44.389,58.438,43.622,58.978z"/>
	<path fill-rule="evenodd" clip-rule="evenodd" fill="#A5CD39" d="M45.705,57.166c-0.573-1.083-1.137-2.158-1.221-3.387
		c-0.173-2.533,0.639-4.708,2.843-6.44c0.705-0.555,1.325-1.189,1.984-1.788c2.55,1.376,5.253,1.605,8.082,0.768
		c0.064,0.3-0.164,0.402-0.308,0.532c-2.641,2.39-5.276,4.783-7.937,7.155C47.982,55.045,47.045,56.273,45.705,57.166z"/>
	<path fill-rule="evenodd" clip-rule="evenodd" fill="#ED2A24" d="M55.631,15.842c0.971-0.039,1.736,0.355,2.251,0.998
		c0.441,0.551,0.954,1.027,1.507,1.469c2.001,1.594,1.707,2.875,0.2,4.484c-0.647,0.691-1.413,1.309-2.185,1.898
		c-1.064,0.813-2.503,0.845-3.541,0.031c-1.068-0.836-2.135-1.688-2.922-2.762c-0.686-0.936-0.709-2.049,0.073-2.883
		c0.837-0.893,1.864-1.637,2.681-2.559C54.149,16.008,54.867,15.799,55.631,15.842z"/>
	<path fill-rule="evenodd" clip-rule="evenodd" fill="#8E479B" d="M24.544,61.596c1.226-1.13,2.389-2.284,4.097-2.948
		c3.752-1.461,8.341-0.59,10.987,2.186c0.243,0.255,0.494,0.516,0.898,0.589C35.237,64.163,29.91,64.273,24.544,61.596z"/>
	<path fill-rule="evenodd" clip-rule="evenodd" fill="#009FDF" d="M66.51,33.027c0.033,0.413,0.006,0.864-0.301,1.221
		c-0.941,1.097-2.016,2.102-3.305,2.879c-0.988,0.596-2.072,0.453-2.958-0.228c-0.915-0.705-1.782-1.464-2.593-2.261
		c-0.97-0.955-0.929-2.324,0.07-3.281c0.771-0.738,1.588-1.445,2.43-2.122c0.871-0.698,2.276-0.83,3.171-0.229
		c1.148,0.771,2.147,1.699,3.073,2.675C66.451,32.052,66.559,32.517,66.51,33.027z"/>
	<path fill-rule="evenodd" clip-rule="evenodd" fill="#A5CD39" d="M60.465,43.33c0.012-0.403,0.045-0.813,0.342-1.142
		c0.852-0.946,1.791-1.833,2.906-2.534c0.954-0.602,2.117-0.469,3.043,0.269c0.732,0.584,1.441,1.196,2.104,1.841
		c1.049,1.021,1.017,2.333-0.059,3.331c-0.681,0.631-1.377,1.253-2.11,1.837c-1.021,0.814-2.291,0.832-3.303,0.032
		c-0.791-0.626-1.512-1.32-2.275-1.975C60.574,44.527,60.512,43.934,60.465,43.33z"/>
	<path fill-rule="evenodd" clip-rule="evenodd" fill="#8E479B" d="M70.605,23.143c0.01,0.38-0.105,0.738-0.362,1.032
		c-0.694,0.794-1.495,1.515-2.405,2.114c-0.871,0.574-1.799,0.484-2.602-0.153c-0.674-0.536-1.323-1.104-1.936-1.695
		c-0.823-0.796-0.824-1.902,0.006-2.716c0.606-0.595,1.271-1.147,1.932-1.698c0.43-0.358,0.973-0.54,1.563-0.504
		C68.136,19.603,70.58,21.949,70.605,23.143z"/>
	<path fill-rule="evenodd" clip-rule="evenodd" fill="#14BBB8" d="M29.825,16.227c0.613,0.881,1.418,1.621,2.273,2.317
		c0.731,0.597,1.292,1.282,1.622,2.109c-2.444-0.528-4.171,0.313-5.683,1.993c-1.138,1.266-2.611,2.301-3.935,3.438
		c-0.356-2.071-0.011-4.016,1.352-5.779c0.561-0.727,1.338-1.273,2.036-1.884c0.781-0.683,1.521-1.39,2.132-2.196
		C29.69,16.17,29.758,16.174,29.825,16.227z"/>
	<path fill-rule="evenodd" clip-rule="evenodd" fill="#F6911E" d="M9.678,39.938c-0.411,2.16-1.387,4.071-3.236,5.597
		c-1.974-2.535-3.162-5.28-2.937-8.403c0.223-0.228,0.523-0.258,0.83-0.218c2.22,0.287,4.128,1.032,5.32,2.811
		C9.662,39.795,9.67,39.866,9.678,39.938z"/>
	<path fill-rule="evenodd" clip-rule="evenodd" fill="#CDDD46" d="M9.654,39.724c-1.162-0.716-1.982-1.824-3.481-2.164
		c-0.884-0.2-1.749-0.428-2.668-0.429c-0.082-2.14,0.326-4.184,1.546-6.069C8.124,33.323,10.026,36.062,9.654,39.724z"/>
	<path fill-rule="evenodd" clip-rule="evenodd" fill="#223E99" d="M29.825,16.227l-0.102,0.008c0,0-0.102-0.008-0.101-0.01
		c-1.377-1.246-2.756-2.492-4.134-3.738c3.306-1.771,6.835-2.05,10.533-1.21C33.695,12.678,31.714,14.407,29.825,16.227z"/>
	<path fill-rule="evenodd" clip-rule="evenodd" fill="#CDDD46" d="M68.148,14.713c-0.004,0.7-1.996,2.576-2.704,2.547
		c-0.678-0.027-2.593-1.885-2.608-2.529c-0.02-0.798,1.794-2.398,2.707-2.389C66.394,12.353,68.152,13.952,68.148,14.713z"/>
	<path fill-rule="evenodd" clip-rule="evenodd" fill="#01B1B3" d="M73.886,32.246c0.015,0.91-1.612,2.483-2.578,2.494
		c-0.946,0.012-2.64-1.547-2.661-2.451c-0.018-0.766,1.805-2.369,2.67-2.348C72.181,29.961,73.873,31.481,73.886,32.246z"/>
	<path fill-rule="evenodd" clip-rule="evenodd" fill="#D71B63" d="M51.11,15.029c0.018,0.513-1.572,1.986-2.181,2.02
		c-0.449,0.027-2.092-1.491-2.116-1.953c-0.033-0.62,1.361-1.867,2.109-1.886C49.641,13.191,51.088,14.395,51.11,15.029z"/>
	<path fill-rule="evenodd" clip-rule="evenodd" fill="#244099" d="M71.277,27.564c0.016-0.599,1.059-1.549,1.698-1.545
		c0.61,0.002,1.724,0.998,1.728,1.545c0.005,0.578-1.129,1.668-1.739,1.672C72.316,29.24,71.262,28.196,71.277,27.564z"/>
</g>
<g>
	<path fill="#EFEFEF" d="M84.548,18.784v23.857h15.227v5.035h-20.81V18.784H84.548z"/>
	<path fill="#EFEFEF" d="M131.923,33.396c-0.084,7.471-4.779,14.941-15.185,14.941s-15.227-7.306-15.227-14.9
		c0-7.595,4.99-15.23,15.227-15.23C126.932,18.207,132.008,25.842,131.923,33.396z M107.01,33.52
		c0.127,4.746,2.75,9.823,9.729,9.823c6.979,0,9.602-5.118,9.687-9.865c0.084-4.87-2.707-10.319-9.687-10.319
		C109.76,23.159,106.883,28.649,107.01,33.52z"/>
	<path fill="#EFEFEF" d="M158.023,25.842c-1.988-1.857-4.949-2.889-7.529-2.889c-6.345,0-10.193,4.705-10.193,10.649
		c0,4.747,2.834,9.659,10.193,9.659c2.326,0,4.356-0.496,6.684-2.312v-5.118h-7.571V30.96h12.688v12.176
		c-2.918,3.261-6.598,5.2-11.801,5.2c-11.124,0-15.649-7.141-15.649-14.735c0-8.131,5.202-15.643,15.649-15.643
		c3.977,0,7.952,1.486,10.997,4.416L158.023,25.842z"/>
	<path fill="#EFEFEF" d="M195.966,33.396c-0.084,7.471-4.779,14.941-15.185,14.941s-15.227-7.306-15.227-14.9
		c0-7.595,4.99-15.23,15.227-15.23C190.975,18.207,196.051,25.842,195.966,33.396z M171.053,33.52
		c0.127,4.746,2.75,9.823,9.729,9.823c6.979,0,9.602-5.118,9.687-9.865c0.084-4.87-2.707-10.319-9.687-10.319
		C173.803,23.159,170.926,28.649,171.053,33.52z"/>
</g>
</svg>
